{"title":"The Devils Double 2011 BRRiP XviD AC3 - MiSTERE","uid":6804293,"size":1933879920,"categoryP":"video","categoryS":"movies","magnet":"?xt=urn:btih:fae81435bc75e6a8f233417c354bf565997c5e5f&amp;dn=The+Devils+Double+2011+BRRiP+XviD+AC3+-+MiSTERE&amp;tr=udp%3A%2F%2Ftracker.openbittorrent.com%3A80&amp;tr=udp%3A%2F%2Fopen.demonii.com%3A1337&amp;tr=udp%3A%2F%2Ftracker.coppersurfer.tk%3A6969&amp;tr=udp%3A%2F%2Fexodus.desync.com%3A6969","seeders":0,"leechers":0,"uploader":"sceneline","files":131,"time":1320798157,"description":"- &lt;a href=&quot;\nhttp://www.Speed.Cd&quot; rel=&quot;nofollow&quot; target=&quot;_NEW&quot;&gt;\nhttp://www.Speed.Cd&lt;/a&gt;      fast  and The Hottest Private Tracker on the net\n\n   signup is open now\n\nPlease Seed back to make the speed Faster!!!\n\n------------------nfo--------------------------\n-The Devils Double 2011 BRRiP XviD AC3 - MiSTERE\n &lt;a href=&quot;\nhttp://www.imdb.com/title/tt1270262/&quot; rel=&quot;nofollow&quot; target=&quot;_NEW&quot;&gt;\nhttp://www.imdb.com/title/tt1270262/&lt;/a&gt;\n\nVideo\nID                               : 0\nFormat                           : MPEG-4 Visual\nFormat profile                   : Advanced Simple@L5\nFormat settings, BVOP            : 2\nFormat settings, QPel            : No\nFormat settings, GMC             : No warppoints\nFormat settings, Matrix          : Default (H.263)\nMuxing mode                      : Packed bitstream\nCodec ID                         : XVID\nCodec ID/Hint                    : XviD\nDuration                         : 1h 48mn\nBit rate                         : 2 055 Kbps\nWidth                            : 720 pixels\nHeight                           : 304 pixels\nDisplay aspect ratio             : 2.35:1\nFrame rate                       : 23.976 fps\nColor space                      : YUV\nChroma subsampling               : 4:2:0\nBit depth                        : 8 bits\nScan type                        : Progressive\nCompression mode                 : Lossy\nBits/(Pixel*Frame)               : 0.392\nStream size                      : 1.56 GiB (89%)\nWriting library                  : XviD 64\n\nAudio\nID                               : 1\nFormat                           : AC-3\nFormat/Info                      : Audio Coding 3\nMode extension                   : CM (complete main)\nCodec ID                         : 2000\nDuration                         : 1h 48mn\nBit rate mode                    : Constant\nBit rate                         : 256 Kbps\nChannel(s)                       : 6 channels\nChannel positions                : Front: L C R, Side: L R, LFE\nSampling rate                    : 48.0 KHz\nBit depth                        : 16 bits\nCompression mode                 : Lossy\nStream size                      : 199 MiB (11%)\nAlignment                        : Aligned on interleaves\nInterleave, duration             : 42 ms (1.00 video frame)\n\n\n\n \nCropped Resized and Sharpened\n\n\n[IMG]http://i.imgur.com/McPz5.png[/IMG]\n[IMG]http://i.imgur.com/YGLwQ.png[/IMG]\n[IMG]http://i.imgur.com/J89oy.png[/IMG]\n[IMG]http://i.imgur.com/38f7e.png[/IMG]","torrent":{"xt":"urn:btih:fae81435bc75e6a8f233417c354bf565997c5e5f","amp;dn":"The+Devils+Double+2011+BRRiP+XviD+AC3+-+MiSTERE","amp;tr":["udp%3A%2F%2Ftracker.openbittorrent.com%3A80","udp%3A%2F%2Fopen.demonii.com%3A1337","udp%3A%2F%2Ftracker.coppersurfer.tk%3A6969","udp%3A%2F%2Fexodus.desync.com%3A6969"],"infoHash":"fae81435bc75e6a8f233417c354bf565997c5e5f","infoHashBuffer":{"type":"Buffer","data":[250,232,20,53,188,117,230,168,242,51,65,124,53,75,245,101,153,124,94,95]},"announce":[],"urlList":[]}}